<svg xmlns="http://www.w3.org/2000/svg" width="52" height="12" fill="none"><g clip-path="url(#a)"><g filter="url(#b)"><path fill="#9E9EA3" fill-rule="evenodd" d="M6 12A6 6 0 1 0 6 0a6 6 0 0 0 0 12Z" clip-rule="evenodd"/></g><path stroke="#9E9EA3" stroke-width=".5" d="M11.75 6A5.75 5.75 0 1 1 .25 6a5.75 5.75 0 0 1 11.5 0Z"/><g filter="url(#c)"><path fill="#9E9EA3" fill-rule="evenodd" d="M26 12a6 6 0 1 0 0-12 6 6 0 0 0 0 12Z" clip-rule="evenodd"/></g><path stroke="#9E9EA3" stroke-width=".5" d="M31.75 6a5.75 5.75 0 1 1-11.5 0 5.75 5.75 0 0 1 11.5 0Z"/><g filter="url(#d)"><path fill="#9E9EA3" fill-rule="evenodd" d="M46 12a6 6 0 1 0 0-12 6 6 0 0 0 0 12Z" clip-rule="evenodd"/></g><path stroke="#9E9EA3" stroke-width=".5" d="M51.75 6a5.75 5.75 0 1 1-11.5 0 5.75 5.75 0 0 1 11.5 0Z"/></g><defs><filter id="b" width="12" height="12" x="0" y="0" color-interpolation-filters="sRGB" filterUnits="userSpaceOnUse"><feFlood flood-opacity="0" result="BackgroundImageFix"/><feBlend in="SourceGraphic" in2="BackgroundImageFix" result="shape"/><feColorMatrix in="SourceAlpha" result="hardAlpha" values="0 0 0 0 0 0 0 0 0 0 0 0 0 0 0 0 0 0 127 0"/><feOffset/><feGaussianBlur stdDeviation="3"/><feComposite in2="hardAlpha" k2="-1" k3="1" operator="arithmetic"/><feColorMatrix values="0 0 0 0 0.619608 0 0 0 0 0.619608 0 0 0 0 0.639216 0 0 0 1 0"/><feBlend in2="shape" result="effect1_innerShadow_1_2"/></filter><filter id="c" width="12" height="12" x="20" y="0" color-interpolation-filters="sRGB" filterUnits="userSpaceOnUse"><feFlood flood-opacity="0" result="BackgroundImageFix"/><feBlend in="SourceGraphic" in2="BackgroundImageFix" result="shape"/><feColorMatrix in="SourceAlpha" result="hardAlpha" values="0 0 0 0 0 0 0 0 0 0 0 0 0 0 0 0 0 0 127 0"/><feOffset/><feGaussianBlur stdDeviation="3"/><feComposite in2="hardAlpha" k2="-1" k3="1" operator="arithmetic"/><feColorMatrix values="0 0 0 0 0.619608 0 0 0 0 0.619608 0 0 0 0 0.639216 0 0 0 1 0"/><feBlend in2="shape" result="effect1_innerShadow_1_2"/></filter><filter id="d" width="12" height="12" x="40" y="0" color-interpolation-filters="sRGB" filterUnits="userSpaceOnUse"><feFlood flood-opacity="0" result="BackgroundImageFix"/><feBlend in="SourceGraphic" in2="BackgroundImageFix" result="shape"/><feColorMatrix in="SourceAlpha" result="hardAlpha" values="0 0 0 0 0 0 0 0 0 0 0 0 0 0 0 0 0 0 127 0"/><feOffset/><feGaussianBlur stdDeviation="3"/><feComposite in2="hardAlpha" k2="-1" k3="1" operator="arithmetic"/><feColorMatrix values="0 0 0 0 0.619608 0 0 0 0 0.619608 0 0 0 0 0.639216 0 0 0 1 0"/><feBlend in2="shape" result="effect1_innerShadow_1_2"/></filter><clipPath id="a"><path fill="#fff" d="M0 0h52v12H0z"/></clipPath></defs></svg>